<?xml version="1.0" encoding="UTF-8"?>
<svg version="1.1" xmlns="http://www.w3.org/2000/svg" width="1601" height="1052">
<path d="M0 0 C0.73089844 0.65355469 1.46179688 1.30710937 2.21484375 1.98046875 C3.41947266 3.00720703 3.41947266 3.00720703 4.6484375 4.0546875 C12.86425152 11.19385818 20.7252797 19.22710329 27.21484375 27.98046875 C27.21484375 28.64046875 27.21484375 29.30046875 27.21484375 29.98046875 C28.20484375 30.31046875 29.19484375 30.64046875 30.21484375 30.98046875 C31.62182617 32.67602539 31.62182617 32.67602539 33.0703125 34.890625 C33.60615967 35.70660156 34.14200684 36.52257812 34.6940918 37.36328125 C35.25781494 38.24757813 35.82153809 39.131875 36.40234375 40.04296875 C36.98604736 40.95691406 37.56975098 41.87085938 38.17114258 42.8125 C60.04156141 77.51917934 72.17258262 119.63128276 63.68798828 160.42724609 C58.44181631 183.09757775 48.05897647 202.52162513 34.21484375 220.98046875 C33.61414063 221.83640625 33.0134375 222.69234375 32.39453125 223.57421875 C25.45497446 233.44639159 17.60906174 242.92189061 8.83984375 251.23046875 C5.16291045 254.79201711 2.64444766 258.77160795 -0.015625 263.125 C-5.04849652 271.24647699 -10.90911837 278.44168381 -17.4140625 285.421875 C-19.4369816 287.60476134 -21.36954744 289.82927475 -23.28515625 292.10546875 C-57.28739847 331.12443524 -112.98588611 351.02803251 -163.30834961 354.77099609 C-207.83184914 357.45347363 -250.87395606 348.86371352 -290.78515625 328.98046875 C-291.61466797 328.57119141 -292.44417969 328.16191406 -293.29882812 327.74023438 C-301.33545586 323.74503324 -308.90774058 319.54273743 -316.05078125 314.06640625 C-318.05875801 312.53460683 -320.06668732 311.07465946 -322.14453125 309.64453125 C-329.29086038 304.71331857 -335.8103054 299.48016446 -342.109375 293.50390625 C-344.34542305 291.39516605 -346.62083769 289.39405298 -348.97265625 287.41796875 C-381.90648737 258.60086652 -404.88162839 210.83974863 -408.54296875 167.4765625 C-411.63417981 118.36692117 -398.38679788 71.95990057 -366.35546875 34.109375 C-362.41430185 29.64404617 -358.4400834 25.68325171 -353.78515625 21.98046875 C-353.04265625 21.21734375 -352.30015625 20.45421875 -351.53515625 19.66796875 C-321.68944874 -9.49942722 -277.8349544 -23.93555265 -236.78515625 -25.01953125 C-235.89957031 -25.05949219 -235.01398438 -25.09945313 -234.1015625 -25.140625 C-209.52950598 -25.79230201 -180.65087023 -21.14077974 -158.63549805 -9.92431641 C-156.18449028 -8.72581597 -154.48165498 -8.71087003 -151.78515625 -9.01953125 C-150.04130471 -10.02384315 -150.04130471 -10.02384315 -148.47265625 -11.51953125 C-106.52514128 -44.88866135 -38.77081915 -33.20372717 0 0 Z M-118.78515625 0.98046875 C-119.37796387 1.37459961 -119.97077148 1.76873047 -120.58154297 2.17480469 C-121.98400567 3.10813807 -123.38478008 4.04400764 -124.78515625 4.98046875 C-123.41504254 8.14543143 -121.94715257 9.93441438 -119.28515625 12.10546875 C-95.29816257 32.59165795 -78.40608866 60.74526134 -75.55761719 92.51855469 C-73.96378503 118.35066453 -82.22082428 142.56792298 -97.84765625 163.04296875 C-100.03524441 165.67373968 -100.03524441 165.67373968 -99.5546875 167.94921875 C-97.39193907 173.65799634 -93.18633434 177.08687479 -87.78515625 179.66796875 C-67.72516889 187.98284723 -46.38398232 190.15929932 -25.89013672 182.24902344 C-5.12553909 173.42836882 10.66704746 158.86083742 19.96484375 138.23046875 C31.08773788 109.63410919 28.6739504 77.50133713 16.46484375 49.60546875 C3.8846575 22.13084495 -17.50214012 -0.83718208 -45.78515625 -12.01953125 C-72.92748204 -21.96666293 -95.69426653 -14.43917858 -118.78515625 0.98046875 Z M-282.78515625 -5.01953125 C-284.50605469 -4.53419922 -284.50605469 -4.53419922 -286.26171875 -4.0390625 C-303.43773951 1.14368015 -319.8246278 9.71772957 -333.78515625 20.98046875 C-334.35588867 21.4398584 -334.92662109 21.89924805 -335.51464844 22.37255859 C-345.79247735 30.72293871 -354.59268064 39.55497462 -362.78515625 49.98046875 C-363.44515625 50.81191406 -364.10515625 51.64335937 -364.78515625 52.5 C-375.75838749 66.90236601 -382.96992961 82.93216858 -388.78515625 99.98046875 C-389.20667969 101.21410156 -389.62820313 102.44773437 -390.0625 103.71875 C-397.98028895 129.14531 -399.05324176 160.04647613 -392.78515625 185.98046875 C-392.58647949 186.81400879 -392.38780273 187.64754883 -392.18310547 188.50634766 C-389.03787177 201.29225272 -384.60193078 213.18246915 -378.78515625 224.98046875 C-378.43050293 225.7075 -378.07584961 226.43453125 -377.71044922 227.18359375 C-372.62697679 237.50146491 -366.76765603 246.84863272 -359.78515625 255.98046875 C-359.11742187 256.86089844 -358.4496875 257.74132812 -357.76171875 258.6484375 C-321.27174847 305.48964425 -266.18778084 333.60218837 -207.78808594 341.24171448 C-202.47716326 341.8813131 -197.23359211 342.1657242 -191.88671875 342.21875 C-191.06251434 342.22858917 -190.23830994 342.23842834 -189.38912964 342.24856567 C-133.48158673 342.77772119 -81.88763643 328.53541023 -40.046875 289.99609375 C-37.78515625 287.98046875 -37.78515625 287.98046875 -35.4921875 286.33984375 C-34.92886719 285.89125 -34.36554688 285.44265625 -33.78515625 284.98046875 C-33.78515625 284.32046875 -33.78515625 283.66046875 -33.78515625 282.98046875 C-32.79515625 282.65046875 -31.80515625 282.32046875 -30.78515625 281.98046875 C-31.44515625 281.65046875 -32.10515625 281.32046875 -32.78515625 280.98046875 C-35.26566678 282.09669849 -37.63503797 283.27241643 -40.03515625 284.54296875 C-71.4152963 300.62717361 -105.56621401 309.47830449 -140.91015625 309.29296875 C-141.62238342 309.29147827 -142.3346106 309.28998779 -143.06842041 309.28845215 C-155.50860887 309.24199084 -167.54517135 308.2301933 -179.78515625 305.98046875 C-181.34634273 305.72258698 -182.90754048 305.46477346 -184.46875 305.20703125 C-228.75658641 297.36930185 -270.2099266 271.29829027 -296.28515625 234.79296875 C-316.42708672 205.08977286 -328.85840463 168.35650107 -322.78515625 132.23046875 C-317.04660335 108.09636775 -304.50770597 87.49806572 -283.484375 74.20703125 C-263.55799796 62.00803913 -239.1520356 58.10537517 -216.40673828 63.28198242 C-195.11092345 68.56679869 -176.72932114 80.21434814 -164.78515625 98.98046875 C-156.33739977 113.34500706 -150.90994985 129.50899604 -154.48046875 146.23828125 C-158.86475145 160.64378156 -167.97708134 172.79139043 -180.94140625 180.51171875 C-193.67750511 187.08970387 -207.66330184 189.33907422 -221.59765625 185.35546875 C-228.00003926 183.13713382 -234.62787471 180.20508568 -239.43359375 175.296875 C-240.70949324 173.74789257 -240.70949324 173.74789257 -242.78515625 173.98046875 C-243.04683594 173.41199219 -243.30851563 172.84351563 -243.578125 172.2578125 C-244.87868104 169.8040126 -246.41713677 167.75260967 -248.09765625 165.54296875 C-251.70658868 160.52640293 -253.66667932 155.42968594 -255.546875 149.5703125 C-256.50829816 146.81247601 -256.50829816 146.81247601 -258.9296875 146.109375 C-259.54199219 146.06683594 -260.15429688 146.02429688 -260.78515625 145.98046875 C-262.69415577 151.40604634 -259.99558272 155.98160199 -257.78515625 160.98046875 C-250.49030762 175.62543001 -239.79666652 185.55408275 -224.296875 191.19921875 C-209.47016739 195.8109474 -194.94858925 194.1944038 -180.78515625 187.98046875 C-165.13517228 179.70511751 -157.25237342 167.365822 -149.78515625 151.98046875 C-143.80974999 151.80199186 -140.39022618 152.19814084 -135.78515625 155.98046875 C-130.21593676 162.42903868 -130.98035182 170.85057319 -130.78515625 178.98046875 C-127.6028152 177.2259249 -127.6028152 177.2259249 -124.78515625 174.98046875 C-124.51547352 173.2333937 -124.26940464 171.48264673 -124.03515625 169.73046875 C-123.36463564 166.01607403 -122.83446141 164.05517354 -120.72265625 160.85546875 C-117.66564312 158.90418378 -116.84731921 158.81244538 -113.41015625 158.73046875 C-110.53731753 158.53103201 -109.17530747 158.30080344 -106.9296875 156.45703125 C-93.15128437 139.49414593 -87.40398085 119.16453789 -87.46948242 97.65576172 C-87.47265177 95.48354246 -87.44906177 93.31267803 -87.42382812 91.140625 C-87.35819664 76.81356699 -90.19948809 63.64253945 -100.16796875 52.84765625 C-102.8252031 49.77964171 -105.0113003 46.38653325 -107.26953125 43.01953125 C-108.62873995 40.87073525 -108.62873995 40.87073525 -110.78515625 39.98046875 C-110.31253808 43.0997487 -109.53780371 45.55762467 -108.28515625 48.48046875 C-107.03250879 51.40331283 -106.25777442 53.8611888 -105.78515625 56.98046875 C-106.44515625 57.31046875 -107.10515625 57.64046875 -107.78515625 57.98046875 C-106.56828125 58.18671875 -105.35140625 58.39296875 -104.09765625 58.60546875 C-100.45355936 59.55834214 -98.12066437 60.79247121 -95.81640625 63.9296875 C-93.21878413 69.09541331 -91.78515625 75.2095209 -91.78515625 80.98046875 C-92.18605469 80.59375 -92.58695312 80.20703125 -93 79.80859375 C-97.56496042 75.62663454 -102.05875866 73.24224159 -107.78515625 70.98046875 C-109.44940721 70.25824663 -111.11365313 69.53601197 -112.77734375 68.8125 C-114.37316695 68.15119583 -115.98675009 67.53278351 -117.60546875 66.9296875 C-127.71191929 63.04161693 -134.35934491 58.5247574 -138.953125 48.4921875 C-140.17763613 44.7956586 -140.14262344 41.84111444 -139.78515625 37.98046875 C-136.29390027 35.77765248 -134.0564955 35.96477101 -130.03515625 36.54296875 C-124.32102175 37.15919894 -120.93012944 36.45401355 -115.78515625 33.98046875 C-117.12317037 30.91555955 -118.49423606 29.12685942 -121.09765625 27.04296875 C-123.41093349 25.15984637 -125.3209153 23.39244053 -127.34765625 21.16796875 C-130.19463619 18.61298675 -132.02294847 18.24294836 -135.78515625 17.98046875 C-137.49807243 20.6200445 -139.14924781 23.29257386 -140.78515625 25.98046875 C-141.18863281 26.604375 -141.59210938 27.22828125 -142.0078125 27.87109375 C-145.85254147 34.43055966 -145.8289215 41.30771836 -144.1953125 48.62109375 C-140.94005904 58.16183661 -134.27049453 65.03585119 -125.41015625 69.60546875 C-122.21305008 71.10075613 -120.3204806 71.98046875 -116.78515625 71.98046875 C-116.78515625 72.64046875 -116.78515625 73.30046875 -116.78515625 73.98046875 C-134.45573327 72.64152174 -152.98975266 70.9001186 -165.78515625 57.04296875 C-173.02067149 47.90615024 -176.04188266 37.59325705 -174.78515625 25.98046875 C-172.76574271 17.54004568 -168.32582375 10.28890268 -163.78515625 2.98046875 C-168.07310801 -0.49478567 -172.5127032 -1.82318853 -177.72265625 -3.45703125 C-179.17526855 -3.91553467 -179.17526855 -3.91553467 -180.65722656 -4.38330078 C-213.80384529 -14.51411865 -249.5740538 -15.28138875 -282.78515625 -5.01953125 Z M-127.78515625 186.98046875 C-126.92425327 195.0116322 -122.29935814 200.86611996 -116.34765625 206.140625 C-110.2681307 210.61477584 -103.94199378 214.34510362 -96.22265625 213.66796875 C-95.01609375 213.32765625 -95.01609375 213.32765625 -93.78515625 212.98046875 C-93.29015625 211.49546875 -93.29015625 211.49546875 -92.78515625 209.98046875 C-95.65680226 208.06603807 -96.68026531 207.71668889 -99.91015625 207.23046875 C-109.4735741 205.19668995 -115.55816466 198.92719581 -120.78515625 190.98046875 C-121.92203749 189.00205265 -122.87204684 187.07524915 -123.78515625 184.98046875 C-125.24740641 184.88801872 -125.24740641 184.88801872 -127.78515625 186.98046875 Z " fill="#FEFEFE" transform="translate(416.78515625,291.01953125)"/>
<path d="M0 0 C0.78429382 -0.0023465 1.56858765 -0.00469299 2.37664795 -0.0071106 C18.2058381 0.01230116 32.72414697 2.51769525 48.0625 6.5 C50.35253795 7.05993132 52.64290146 7.61853289 54.93359375 8.17578125 C74.36733891 13.03140594 92.4063541 20.08487694 110.0625 29.5 C110.71138184 29.84111816 111.36026367 30.18223633 112.02880859 30.53369141 C147.45450575 49.26281522 178.74066016 78.26279853 198.0625 113.5 C198.40619629 114.11633301 198.74989258 114.73266602 199.10400391 115.36767578 C205.27779983 126.55931053 209.51539971 138.23851036 213.0625 150.5 C213.60777344 152.36591797 213.60777344 152.36591797 214.1640625 154.26953125 C216.37295099 163.63150258 216.39864549 173.11938873 216.5 182.6875 C216.51239716 183.37091461 216.52479431 184.05432922 216.53756714 184.75845337 C216.87311842 207.0982579 207.41187471 223.75253731 192.3125 239.625 C181.96712369 249.67073888 169.24772588 257.69482694 154.4375 257.875 C151.16387008 257.75840496 148.21210492 257.40199953 145.0625 256.5 C145.22496214 257.04838445 145.38742428 257.5967689 145.55480951 258.16177106 C146.1300875 260.81128226 146.18662578 263.19953932 146.18554783 265.91166306 C146.18753888 267.01689686 146.18952993 268.12213066 146.19158131 269.26085639 C146.18866847 270.47485374 146.18575563 271.68885108 146.18275452 272.93963623 C146.18403615 274.87424127 146.18403615 274.87424127 146.18534368 276.84792924 C146.18758262 280.43039878 146.18357554 284.01283851 146.17856562 287.59530425 C146.17425271 291.45757405 146.17570814 295.31984212 146.1764679 299.18211365 C146.1769926 305.87462514 146.17385141 312.56712689 146.16823006 319.25963593 C146.16010778 328.9359158 146.15749909 338.61219096 146.15624207 348.28847387 C146.15405269 363.9870777 146.14739571 379.68567634 146.13793945 395.38427734 C146.12876237 410.63525364 146.12168298 425.88622853 146.11743164 441.13720703 C146.11703756 442.5469861 146.11703756 442.5469861 146.11663551 443.98524556 C146.11533048 448.70014545 146.11406677 453.41504536 146.11282361 458.12994528 C146.10245457 497.25330049 146.08483936 536.3766499 146.0625 575.5 C147.83660678 575.05200654 149.60829713 574.5944361 151.37890625 574.1328125 C152.36576416 573.87902832 153.35262207 573.62524414 154.36938477 573.36376953 C158.80937485 571.9397205 160.87995636 569.61098352 163.12105894 565.61034417 C165.98080292 559.68961963 166.63426711 554.78824442 166.57043457 548.26409912 C166.57979451 546.77552662 166.57979451 546.77552662 166.58934355 545.25688195 C166.60522048 541.95193302 166.59268987 538.64772704 166.58007812 535.34277344 C166.58550143 532.96534802 166.59262527 530.58792596 166.60131836 528.21051025 C166.61952556 521.76868005 166.61249577 515.32710661 166.59980202 508.88527203 C166.59268174 504.86108872 166.5940353 500.83693809 166.59776306 496.81275177 C166.59868246 495.80929018 166.59868246 495.80929018 166.59962043 494.78555663 C166.60089938 493.42640508 166.60219623 492.06725354 166.6035108 490.70810202 C166.6149009 477.98149923 166.60182578 465.25501195 166.58030933 452.52842811 C166.56242331 441.61101677 166.56555779 430.69377549 166.58398438 419.77636719 C166.60539062 407.08767786 166.61381967 394.39908946 166.60153532 381.71038461 C166.60026115 380.35758481 166.59900367 379.004785 166.59776306 377.65198517 C166.59714596 376.98642893 166.59652886 376.3208727 166.59589306 375.63514809 C166.59244063 370.94706614 166.59826581 366.25904829 166.60768127 361.57097626 C166.61921945 355.263881 166.61125085 348.95710771 166.58810425 342.6500473 C166.58280724 340.33328791 166.58434777 338.01650151 166.59315491 335.69975281 C166.60405385 332.54212258 166.59041454 329.38553007 166.57043457 326.22796631 C166.5838189 324.846607 166.5838189 324.846607 166.59747362 323.43734145 C166.54659497 319.3040913 166.40482811 317.06392584 164.21923065 313.46353531 C161.50892269 310.99601097 159.38274929 310.42483409 155.8125 309.6875 C154.73484375 309.45417969 153.6571875 309.22085937 152.546875 308.98046875 C151.72703125 308.82191406 150.9071875 308.66335938 150.0625 308.5 C149.5 306.5625 149.5 306.5625 149.0625 304.5 C151.2211352 302.3413648 156.22894804 303.2198349 159.25 303.125 C176.16250767 302.42269331 189.89576485 298.6174518 203.984375 289.109375 C207.3745607 287.33684136 209.29462959 287.00479417 213.0625 287.5 C218.51780868 292.95530868 216.14409588 309.43539173 216.15583801 316.92367554 C216.15086148 321.37934665 216.13194985 325.83489936 216.11254883 330.29052734 C216.10570619 332.75938791 216.09937796 335.22824994 216.09352112 337.69711304 C216.08026588 342.98322083 216.06417361 348.26930868 216.04596901 353.55540085 C216.01755949 361.91864486 216.00104042 370.28189411 215.98649597 378.64517212 C215.98137383 381.51577574 215.97619963 384.38637927 215.97102642 387.2569828 C215.96974039 387.97400194 215.96845436 388.69102108 215.96712935 389.42976808 C215.95244513 397.56109233 215.93594805 405.69241232 215.91821289 413.82373047 C215.91659815 414.56569426 215.9149834 415.30765806 215.91331973 416.0721056 C215.88673588 428.11797028 215.84895733 440.16377972 215.80802432 452.209603 C215.76624477 464.61090248 215.7398527 477.01217267 215.72681636 489.41353571 C215.71824321 497.04597908 215.69729318 504.67818338 215.66018762 512.3105423 C215.63297224 518.15652235 215.62680227 524.00240651 215.62836266 529.84845352 C215.62566957 532.24054516 215.61612351 534.63264063 215.59913635 537.02467346 C215.57691365 540.29614428 215.57956574 543.56671194 215.58821106 546.83822632 C215.56971083 548.24894128 215.56971083 548.24894128 215.55083686 549.68815553 C215.61830599 557.84101253 217.73863107 565.17913407 223.0625 571.5 C226.02467836 573.06337191 228.408905 573.54697017 231.75 574 C235.0625 574.5 235.0625 574.5 237.0625 576.5 C236.6875 579.125 236.6875 579.125 236.0625 581.5 C235.45365967 581.5093457 234.84481934 581.51869141 234.2175293 581.52832031 C217.92415478 581.12465406 217.92415478 581.12465406 203.0625 586.5 C197.88261489 592.15834839 195.97158462 597.40350816 195.87304688 604.97119141 C195.85632935 606.06557526 195.83961182 607.15995911 195.8223877 608.2875061 C195.80881226 609.46364471 195.79523682 610.63978333 195.78125 611.8515625 C195.75363586 613.6671315 195.75363586 613.6671315 195.72546387 615.51937866 C195.64673078 620.70293289 195.57889939 625.88661639 195.51025391 631.0703125 C195.45863021 634.85162993 195.40135218 638.6328322 195.34375 642.4140625 C195.33017456 643.59424957 195.31659912 644.77443665 195.3026123 645.99038696 C195.28589478 647.07846649 195.26917725 648.16654602 195.25195312 649.28759766 C195.23942505 650.24816071 195.22689697 651.20872375 195.21398926 652.19839478 C195.0625 654.5 195.0625 654.5 194.0625 656.5 C187.1875 655.625 187.1875 655.625 186.0625 654.5 C185.96010086 652.69613296 185.92678875 650.88830367 185.9206543 649.08154297 C185.91361984 647.92298798 185.90658539 646.76443298 185.89933777 645.57077026 C185.89517349 644.30733795 185.89100922 643.04390564 185.88671875 641.7421875 C185.86946005 639.76860197 185.85217762 637.79501632 185.83351612 635.82144356 C185.78791663 630.94121473 185.75024254 626.06109396 185.73657227 621.18066406 C185.72841811 618.44886286 185.70978979 615.71751745 185.67964172 612.98587036 C185.65153512 610.41167356 185.63857553 607.83725618 185.64250183 605.26290894 C185.54638034 598.39974607 185.0447678 594.13209982 181.0625 588.5 C181.0625 587.84 181.0625 587.18 181.0625 586.5 C180.01449219 586.19255859 180.01449219 586.19255859 178.9453125 585.87890625 C178.03523438 585.60949219 177.12515625 585.34007812 176.1875 585.0625 C175.28257812 584.79566406 174.37765625 584.52882813 173.4453125 584.25390625 C171.0625 583.5 171.0625 583.5 169.0625 582.5 C167.39684251 582.34777027 165.72593504 582.25082785 164.0546875 582.18359375 C162.57548828 582.12075195 162.57548828 582.12075195 161.06640625 582.05664062 C159.51759766 581.99766602 159.51759766 581.99766602 157.9375 581.9375 C156.89722656 581.89431641 155.85695313 581.85113281 154.78515625 581.80664062 C152.21107472 581.7003712 149.63689492 581.59833417 147.0625 581.5 C146.94540994 598.89450536 146.85738675 616.28888675 146.80343914 633.68369675 C146.7777183 641.7614336 146.74268591 649.83892479 146.68530273 657.91650391 C146.63527913 664.96150075 146.60316455 672.00631958 146.59205753 679.05148911 C146.58557056 682.77781368 146.57045479 686.50362922 146.53384972 690.22978973 C146.4932018 694.40178979 146.49256262 698.57291945 146.49487305 702.74511719 C146.47689667 703.96432358 146.45892029 705.18352997 146.44039917 706.43968201 C146.49730854 715.98131899 149.03305197 723.38127747 153.875 731.5625 C155.94766053 736.68960764 156.02024415 742.27740176 154.44140625 747.58984375 C152.01950623 752.50899179 147.99647065 755.31139045 143.0625 757.5 C139.70889154 758.26853527 138.0729531 758.04061207 135.0546875 756.42578125 C130.07972458 753.07548334 126.59057026 749.3909743 125.0625 743.5 C124.32973688 736.00524734 127.42637421 729.86228254 130.6875 723.28515625 C132.9724331 718.65686847 133.20593634 714.85709981 133.19392776 709.79907227 C133.1959804 709.00297389 133.19803303 708.20687551 133.20014787 707.38665295 C133.20584019 704.69655543 133.20435788 702.00650876 133.20294189 699.31640625 C133.20552424 697.37729839 133.20853703 695.43819106 133.2119453 693.49908447 C133.22003365 688.15291201 133.22180588 682.80675296 133.22254276 677.4605751 C133.22439008 671.70182178 133.23193568 665.94307546 133.23867798 660.18432617 C133.25227381 647.58553158 133.25828767 634.98674016 133.26268864 622.38793945 C133.26544837 614.52750582 133.26968516 606.66707342 133.27419281 598.80664062 C133.28638601 577.06038477 133.29672134 555.31413025 133.3000679 533.56787109 C133.30028954 532.16138903 133.30051132 530.75490697 133.30073325 529.34842491 C133.3009539 527.93851089 133.30117438 526.52859688 133.3013947 525.11868286 C133.30183726 522.29005941 133.30228437 519.46143595 133.30273438 516.6328125 C133.30284377 515.93147737 133.30295316 515.23014224 133.30306586 514.50755453 C133.30669871 491.75270791 133.32262774 468.99789311 133.34592474 446.24305868 C133.37049854 422.19728494 133.38423282 398.15153017 133.38543582 374.10574341 C133.38635431 360.99300394 133.39215049 347.88030615 133.41025543 334.76757812 C133.42561208 323.60575764 133.43080315 312.4439917 133.42251733 301.28216267 C133.41859532 295.5826291 133.4196156 289.88320552 133.43357468 284.1836853 C133.44622091 278.97279238 133.44519857 273.76209316 133.43298396 268.55120087 C133.43101077 266.6595924 133.43417926 264.76797064 133.44282833 262.87638092 C133.45379308 260.31765653 133.44652527 257.75963135 133.4344368 255.20092773 C133.44203199 254.45562396 133.44962718 253.71032019 133.45745254 252.94243145 C133.43067289 248.93895508 133.43067289 248.93895508 131.53925395 245.51869202 C131.05192515 245.18252365 130.56459634 244.84635529 130.0625 244.5 C128.9075 245.11875 127.7525 245.7375 126.5625 246.375 C113.91161333 252.56866327 100.2380478 251.8334675 87.078125 247.58203125 C77.36005328 244.09510655 77.36005328 244.09510655 76.0625 241.5 C76.09601393 240.00709033 76.19018439 238.51528546 76.31640625 237.02734375 C77.3182914 226.87392356 77.3182914 226.87392356 74.15625 217.6015625 C71.63513217 215.52083439 71.63513217 215.52083439 68.87109375 213.65234375 C59.77039807 206.67809713 54.85740072 194.12832806 52.3125 183.3125 C51.360561 172.6031862 52.74014637 162.43920919 59.28515625 153.58984375 C67.28685134 144.18125721 77.53518967 137.59807288 90.0625 136.5 C90.3925 136.83 90.7225 137.16 91.0625 137.5 C90.7698034 141.2318817 90.36140524 143.97392679 88.5 147.25 C86.18345343 152.48740964 86.02011565 158.1246602 87.71875 163.625 C90.04798645 168.28347291 93.34123872 170.70050287 98.0625 172.5 C105.18319023 174.39885073 110.52076474 172.72972464 117.0625 169.5 C123.45627067 164.60264374 125.96388094 158.10793247 127.375 150.375 C130.61259192 124.99927955 120.43085388 98.38115467 105.0625 78.5 C96.96615313 68.33157735 88.3759344 58.94269868 78 51.0625 C77.25975586 50.49974365 76.51951172 49.9369873 75.75683594 49.35717773 C53.98313216 33.08761593 23.25796798 19.07207681 -4.58251953 22.85986328 C-16.79607581 25.01443554 -28.56592812 28.58072545 -39.9375 33.5 C-40.63182129 33.79777344 -41.32614258 34.09554687 -42.04150391 34.40234375 C-58.49569023 41.55536996 -75.02014301 51.15390019 -87.625 64.125 C-88.7696875 65.300625 -88.7696875 65.300625 -89.9375 66.5 C-90.5975 66.5 -91.2575 66.5 -91.9375 66.5 C-92.164375 67.056875 -92.39125 67.61375 -92.625 68.1875 C-94.3039331 71.14562023 -96.52733583 73.08983583 -98.9375 75.5 C-116.90030538 96.39819064 -128.69541423 125.74508354 -126.67578125 153.58203125 C-125.39304828 167.50163738 -121.16895847 180.94501587 -110.75 190.75 C-101.26136874 198.62795604 -91.07365038 203.12100063 -78.67578125 202.8125 C-65.2676256 201.28232532 -54.50779397 194.71842743 -45.9375 184.5 C-43.44982971 180.91983573 -41.14755037 177.25708562 -38.9375 173.5 C-35.9375 175.5 -35.9375 175.5 -35.46875 177.6796875 C-35.31541746 190.90461876 -41.63210952 201.98713601 -50.66796875 211.3203125 C-66.23637951 226.39676558 -86.17900092 235.30328255 -107.9375 236.5 C-109.34515625 236.57927734 -109.34515625 236.57927734 -110.78125 236.66015625 C-127.09642528 237.12457337 -143.68510848 234.01287164 -156.5390625 223.33984375 C-157.8224333 222.05406964 -159.0726887 220.73286079 -160.26171875 219.359375 C-161.94981716 217.37427297 -161.94981716 217.37427297 -164.37109375 215.625 C-176.28284511 205.76199735 -184.13683525 186.51625782 -185.9375 171.5 C-188.68026101 135.85934442 -174.56330201 101.5633871 -151.9375 74.5 C-147.13636337 68.97389433 -142.1007625 63.68744307 -136.9375 58.5 C-136.42219727 57.98066895 -135.90689453 57.46133789 -135.37597656 56.92626953 C-109.58947589 31.2861852 -74.87985424 15.88788116 -40.5 5.6875 C-39.04484985 5.25232056 -39.04484985 5.25232056 -37.56030273 4.80834961 C-25.07264788 1.20477224 -12.94270814 0.02484304 0 0 Z M201.0625 183.5 C199.30076614 185.26173386 199.84935175 187.91954204 199.75 190.3125 C198.70638501 204.56485393 192.72750008 216.85284608 182.28125 226.65625 C171.52174686 235.59724556 160.34339879 240.2742101 146.26953125 239.82421875 C139.57095059 239.14701754 135.24460508 236.79374421 130.0625 232.5 C129.0725 232.5 128.0825 232.5 127.0625 232.5 C127.3834194 235.54873431 127.62283029 237.08203073 129.8828125 239.23046875 C139.69270846 245.43231823 148.94300622 247.15205885 160.44140625 244.8125 C176.61391708 240.22997037 190.10626554 229.54390594 198.53125 214.95703125 C203.3469884 205.70353392 205.28812674 196.9903106 204.0625 186.5 C202.68374124 184.57906437 202.68374124 184.57906437 201.0625 183.5 Z " fill="#FEFEFE" transform="translate(349.9375,19.5)"/>
<path d="M0 0 C3.48852849 2.85599311 6.76402681 5.86332562 10 9 C10.91652344 9.80630859 10.91652344 9.80630859 11.8515625 10.62890625 C26.87975817 24.31897491 35.174191 46.51826364 36.41796875 66.45703125 C37.59097825 98.2908296 24.69899344 128.48909451 3.19921875 151.66796875 C2.47347656 152.43753906 1.74773437 153.20710937 1 154 C0.38769531 154.67675781 -0.22460938 155.35351562 -0.85546875 156.05078125 C-16.3587719 172.54576691 -37.60857448 181.91360943 -59 188 C-60.24265625 188.36222656 -61.4853125 188.72445312 -62.765625 189.09765625 C-82.80048111 193.84159244 -107.32720662 192.77267765 -127 187 C-127.73702148 186.78569336 -128.47404297 186.57138672 -129.23339844 186.35058594 C-145.65332514 181.4051718 -161.23642188 173.43679446 -173.6875 161.5 C-177.26681294 158.26400891 -181.24203024 156.25161082 -185.5625 154.1875 C-201.20530659 146.67917126 -217.51423279 136.07642695 -228 122 C-228.99 122.33 -229.98 122.66 -231 123 C-231.23203125 121.99195313 -231.4640625 120.98390625 -231.703125 119.9453125 C-232.93239565 115.6514917 -235.16292934 112.46661453 -237.75 108.875 C-243.61117658 100.42682864 -247.77664466 91.79306248 -251 82 C-250.99777939 83.01255356 -250.99555878 84.02510712 -250.99327087 85.06834412 C-250.97303946 94.5893765 -250.95802786 104.11040455 -250.94818783 113.63145351 C-250.942959 118.52685374 -250.93586136 123.42223668 -250.92456055 128.31762695 C-250.91373166 133.03787978 -250.90772316 137.75811592 -250.90512276 142.4783802 C-250.90326851 144.28338954 -250.89964791 146.08839792 -250.89426994 147.89340019 C-250.88705948 150.41259644 -250.88600906 152.9317229 -250.88647461 155.45092773 C-250.88287933 156.20474228 -250.87928406 156.95855682 -250.87557983 157.73521423 C-250.88594784 162.88594784 -250.88594784 162.88594784 -252 164 C-252.0993445 165.72514816 -252.12799526 167.45439791 -252.12939453 169.18240356 C-252.13247116 170.30642578 -252.13554779 171.430448 -252.13871765 172.58853149 C-252.1357946 174.45534073 -252.1357946 174.45534073 -252.1328125 176.35986328 C-252.13444901 177.66240051 -252.13608551 178.96493774 -252.13777161 180.3069458 C-252.14196281 184.64475728 -252.13460991 188.9825122 -252.125 193.3203125 C-252.12343525 194.05943422 -252.1218705 194.79855594 -252.12025833 195.56007528 C-252.10474904 202.5405899 -252.08431829 209.52107761 -252.05366516 216.50154305 C-252.01492871 225.40953103 -251.9989211 234.31690314 -252.01445007 243.22496617 C-252.02342887 249.49710241 -252.00549556 255.76883068 -251.96832275 262.04086101 C-251.94688403 265.7801623 -251.93681621 269.51863633 -251.95587158 273.2579689 C-252.14513569 295.09400293 -252.14513569 295.09400293 -244 315 C-242.12214187 320.85175449 -242.23702731 327.47265297 -244 333.3125 C-247.24222621 337.66924147 -250.86866948 341.18170805 -256.2421875 342.5859375 C-261.73281729 342.9849106 -265.21465356 341.22979944 -269.3359375 337.69140625 C-273.07244277 333.893503 -274.20447496 330.334838 -274.625 325.125 C-274.45868964 317.07557852 -270.40226027 310.11455865 -267 303 C-266.02691869 300.08075606 -265.87384516 298.22607427 -265.87136555 295.18828583 C-265.8681411 294.19139504 -265.86491665 293.19450425 -265.8615945 292.16740465 C-265.8631431 291.06926927 -265.8646917 289.97113389 -265.86628723 288.83972168 C-265.86402167 287.67546268 -265.86175612 286.51120368 -265.85942191 285.3116641 C-265.85417538 282.07477484 -265.85343895 278.83792038 -265.85461628 275.6010282 C-265.85481997 272.11223433 -265.84930463 268.62344881 -265.84455872 265.13465881 C-265.83624521 258.29803179 -265.83350357 251.46141338 -265.83294634 244.62478173 C-265.83247158 239.0699572 -265.83041887 233.51513552 -265.82724571 227.96031189 C-265.81843784 212.22203628 -265.81382664 196.48376751 -265.81457619 180.74548942 C-265.81461614 179.89668006 -265.8146561 179.0478707 -265.81469727 178.17333984 C-265.81473815 177.32349807 -265.81477903 176.4736563 -265.81482115 175.59806174 C-265.81522783 161.81686629 -265.80565301 148.03569813 -265.7915589 134.25451058 C-265.77721158 120.114554 -265.77028778 105.97461075 -265.77115268 91.8346467 C-265.77148518 83.89186355 -265.76871479 75.94910901 -265.75797462 68.0063324 C-265.7488913 61.24540023 -265.7466765 54.48450966 -265.75348405 47.72357404 C-265.75676005 44.27209825 -265.75676724 40.82070238 -265.7481308 37.36923409 C-265.74047429 33.63284289 -265.7450134 29.89666455 -265.75276184 26.16027832 C-265.74761828 25.06214294 -265.74247471 23.96400756 -265.73717529 22.83259535 C-265.74177408 21.83570456 -265.74637288 20.83881377 -265.75111103 19.81171417 C-265.75089366 18.9487172 -265.75067629 18.08572022 -265.75045234 17.19657183 C-265.86345399 14.7094848 -265.86345399 14.7094848 -268 12 C-268.125 9.3125 -268.125 9.3125 -268 7 C-265 6 -262 5 -259 4 C-257.55947266 3.46632813 -257.55947266 3.46632813 -256.08984375 2.921875 C-248.21422811 0.5721338 -240.1001865 1.14574466 -232.8125 4.91015625 C-230.7557061 6.14689224 -228.81327448 7.42323958 -227 9 C-228.30267373 13.0648245 -229.79778602 16.96198371 -231.5 20.875 C-234.3209368 27.59864878 -236.37029022 33.59419564 -236 41 C-235.01 41.33 -234.02 41.66 -233 42 C-232.91363281 41.28457031 -232.82726563 40.56914062 -232.73828125 39.83203125 C-230.85053473 26.44461783 -226.10982323 11.37082518 -215.1875 2.5625 C-202.44001229 -5.92766936 -187.80968316 -7.02892659 -173 -5 C-162.13221625 -2.59463043 -153.30571501 2.68325153 -147 12 C-146 14.75 -146 14.75 -146 17 C-146.66 17.99 -147.32 18.98 -148 20 C-148.76183594 19.88140625 -149.52367187 19.7628125 -150.30859375 19.640625 C-157.55661431 18.73575352 -162.88778524 18.72498274 -169 23 C-179.80210969 32.49276306 -184.38855409 47.33492707 -185.38671875 61.328125 C-186.44453832 87.78536791 -177.01934713 112.99252322 -160 133 C-151.87630654 141.75766591 -141.04704395 148.29843276 -129.47265625 151.234375 C-126.54451624 152.14103447 -124.02323437 153.44563807 -121.3125 154.875 C-112.33329515 159.53861802 -102.71062324 162.26461317 -93 165 C-93 165.33 -93 165.66 -93 166 C-93.96486328 165.98428955 -93.96486328 165.98428955 -94.94921875 165.96826172 C-110.33339728 165.65963343 -110.33339728 165.65963343 -125.625 167.0625 C-132.96918848 168.16335844 -139.62738008 167.85245918 -147 167 C-130.15758704 175.61993701 -113.67200874 180.18805824 -94.69946289 180.24023438 C-92.59935197 180.24983159 -90.50026803 180.28085225 -88.40039062 180.3125 C-75.88465606 180.41138694 -64.01618759 178.41489948 -52.125 174.375 C-51.38233887 174.12339111 -50.63967773 173.87178223 -49.87451172 173.61254883 C-36.61424047 168.9119437 -24.85232587 161.90616409 -14 153 C-13.27554687 152.42765625 -12.55109375 151.8553125 -11.8046875 151.265625 C3.23118335 138.88314312 13.61965006 121.14846017 20 103 C20.38526855 101.95900146 20.38526855 101.95900146 20.77832031 100.89697266 C28.14442071 80.60000925 27.25169871 58.41548816 18.31518555 38.8347168 C8.56051741 18.55346254 -8.82157765 3.55036559 -29.92333984 -4.05029297 C-53.82627795 -12.16601534 -79.20093589 -10.95609057 -101.98193359 -0.02099609 C-116.51215318 7.33024735 -126.60952348 16.76117137 -133 32 C-133.3403125 32.7528125 -133.680625 33.505625 -134.03125 34.28125 C-138.73437846 46.64873594 -137.28868899 63.15145344 -132 75 C-125.1714829 89.39965808 -114.46855883 99.71518368 -99.4765625 105.31640625 C-86.48695593 109.35980873 -75.72712961 108.97393314 -63.41796875 102.6796875 C-55.83263931 97.95016352 -49.72733659 91.63656586 -47 83 C-45.75389297 76.43921077 -45.75389297 76.43921077 -47 70 C-47.99 69.67 -48.98 69.34 -50 69 C-49.94199219 69.75023437 -49.88398437 70.50046875 -49.82421875 71.2734375 C-49.42883237 80.24306003 -50.93061929 86.52832309 -57.0546875 93.2578125 C-64.95557259 100.66660094 -73.54683398 104.88149767 -84.5078125 105.03515625 C-97.18286602 104.22061519 -106.90521146 97.80836719 -115.3125 88.5625 C-124.2477154 77.39980881 -126.13274917 66.10917956 -125 52 C-122.31385741 37.7167987 -114.27713956 25.83578704 -102.625 17.25 C-89.3375343 8.73239378 -74.90507717 6.63202145 -59.4765625 9.21484375 C-39.43923172 13.74012857 -22.10830304 25.83305728 -11 43 C-0.55720776 60.31904383 4.17654491 80.47653052 -0.12695312 100.43945312 C-5.44326641 121.76725111 -19.41291258 137.38611573 -37.8125 148.75 C-49.78373257 155.92107119 -62.25162745 161.30241675 -76 164 C-76.33 163.67 -76.66 163.34 -77 163 C-79.11083634 162.68507684 -81.22277362 162.37628399 -83.33886719 162.09887695 C-93.93757753 160.7093763 -103.85303331 158.32536603 -114 155 C-114 154.34 -114 153.68 -114 153 C-113.41992188 152.75765625 -112.83984375 152.5153125 -112.2421875 152.265625 C-99.04553184 146.60369353 -91.41121915 138.83935445 -85 126 C-84.29341978 124.01375006 -83.61429953 122.01670041 -83 120 C-83.93199219 119.84144531 -84.86398437 119.68289063 -85.82421875 119.51953125 C-99.24289591 117.06373695 -110.79544993 113.0239036 -122 105 C-122.63421875 104.55140625 -123.2684375 104.1028125 -123.921875 103.640625 C-136.343433 93.95408894 -144.92367289 77.48593973 -147 62 C-148.4560586 41.75818535 -144.53200539 23.94768569 -131.078125 8.234375 C-117.07006549 -6.82692207 -98.02255326 -15.25419259 -78 -19 C-76.62908203 -19.27457031 -76.62908203 -19.27457031 -75.23046875 -19.5546875 C-48.39662498 -23.25366959 -21.66051026 -15.97730707 0 0 Z " fill="#FEFEFE" transform="translate(1561,437)"/>
<path d="M0 0 C40.22326799 16.47238594 71.82265282 49.34397757 88.77246094 89.20263672 C102.21236746 122.97379397 96.19520374 163.81214136 82.4609375 196.31640625 C72.89714804 218.14276173 59.99683938 236.91691206 43.30957031 253.86279297 C41.94764471 255.25060913 40.60959572 256.66179887 39.27734375 258.078125 C35.45190818 262.09407031 31.50580191 265.19356313 26.76953125 268.08984375 C24.61480061 269.46062276 24.61480061 269.46062276 22.83984375 271.4375 C20.19553032 273.99046442 17.25832082 275.68563357 14.06640625 277.44921875 C12.91914062 278.09761719 11.771875 278.74601562 10.58984375 279.4140625 C9.2930053 280.1181669 7.9933145 280.8170333 6.69140625 281.51171875 C5.93843262 281.91519531 5.18545898 282.31867188 4.40966797 282.734375 C-1.85820145 285.98872568 -8.2290598 288.43615916 -14.93359375 290.63671875 C-15.9810376 290.9829126 -17.02848145 291.32910645 -18.10766602 291.68579102 C-32.05346604 296.17956849 -46.23676254 298.6296304 -60.90234375 298.71484375 C-61.69274048 298.72054382 -62.48313721 298.7262439 -63.29748535 298.7321167 C-64.96133111 298.74149452 -66.62519484 298.74807163 -68.2890625 298.75195312 C-70.77508929 298.76158889 -73.26026249 298.79265264 -75.74609375 298.82421875 C-89.45995841 298.91584605 -103.06945168 297.69213244 -115.99609375 292.76171875 C-116.69049561 292.50567871 -117.38489746 292.24963867 -118.1003418 291.98583984 C-147.26583332 280.93512603 -169.04360447 260.99712144 -183.30859375 233.51171875 C-183.77910156 232.61195313 -184.24960937 231.7121875 -184.734375 230.78515625 C-188.67090323 222.71710148 -191.06349481 214.17252042 -193.30859375 205.51171875 C-193.63214844 204.29097656 -193.95570313 203.07023438 -194.2890625 201.8125 C-200.75749636 173.23599174 -196.16432727 142.94973472 -180.80371094 118.11743164 C-172.82213346 105.7881335 -162.73003404 95.61245677 -148.01220703 91.93847656 C-141.21262115 90.49701378 -134.27949279 89.27705482 -127.30859375 89.51171875 C-127.67560248 92.15532852 -128.06269931 93.28613256 -130.05859375 95.1171875 C-130.80109375 95.63925781 -131.54359375 96.16132813 -132.30859375 96.69921875 C-140.91646825 103.14486086 -148.42936136 110.22331979 -152.30859375 120.51171875 C-151.97859375 121.50171875 -151.64859375 122.49171875 -151.30859375 123.51171875 C-149.05512626 121.50177644 -149.05512626 121.50177644 -147.80859375 118.07421875 C-141.53639556 105.32152058 -127.64528823 94.21766666 -114.30859375 89.51171875 C-93.5972434 84.99588779 -73.27101264 88.07862558 -55.30859375 99.51171875 C-47.73818632 105.22294105 -47.73818632 105.22294105 -46.30859375 109.51171875 C-48.72777071 116.4063731 -53.10619176 122.45937721 -59.25683594 126.5390625 C-65.20811245 129.36032447 -72.35708999 129.29039357 -78.8203125 129.89453125 C-90.67515044 131.05295836 -101.71852457 137.02130214 -109.515625 146.07421875 C-112.52207725 150.18895585 -114.56566983 153.41091182 -115.30859375 158.51171875 C-114.31859375 158.51171875 -113.32859375 158.51171875 -112.30859375 158.51171875 C-111.83421875 157.37734375 -111.35984375 156.24296875 -110.87109375 155.07421875 C-105.59276846 144.55487083 -95.85300792 137.89082593 -84.99609375 134.19921875 C-74.87413309 131.33561556 -66.68016774 131.51907491 -57.30859375 136.51171875 C-52.67952947 139.47431989 -50.45675295 142.70000645 -47.49609375 147.32421875 C-41.44409202 156.66060851 -34.94375951 162.13688536 -24.30859375 165.51171875 C-25.04330399 169.82011664 -25.65091087 171.88569001 -29.30859375 174.51171875 C-37.70289545 177.20423062 -47.0262887 173.13955454 -54.6328125 169.35546875 C-55.24769531 169.01515625 -55.86257813 168.67484375 -56.49609375 168.32421875 C-65.39955796 163.58341313 -76.27632067 163.70466406 -85.83203125 166.16015625 C-96.73899052 169.91049871 -107.16312425 179.07198281 -112.7734375 189.140625 C-119.70091602 203.57789183 -120.95718628 219.93763396 -117.30859375 235.51171875 C-114.10179625 244.46041717 -108.6172643 251.51168704 -102.30859375 258.51171875 C-101.3340625 259.61 -101.3340625 259.61 -100.33984375 260.73046875 C-87.17305651 274.76065188 -68.62581411 280.27217236 -49.80859375 280.94921875 C-30.68168541 280.35960998 -12.83861104 271.80471384 0.69140625 258.51171875 C3.93247479 255.00270814 6.85216353 251.35084544 9.69140625 247.51171875 C10.34496094 246.66867187 10.99851562 245.825625 11.671875 244.95703125 C36.47216357 210.80094519 41.76374946 161.80020416 35.31542969 121.00830078 C33.11247692 109.27601748 29.43671618 97.82697433 25.69140625 86.51171875 C25.4402002 85.75133301 25.18899414 84.99094727 24.93017578 84.20751953 C16.99607387 60.92378255 2.61244848 40.14522591 -14.30859375 22.51171875 C-15.14648438 21.62226563 -15.984375 20.7328125 -16.84765625 19.81640625 C-26.22111663 10.11879162 -36.4895004 2.07491732 -48.30859375 -4.48828125 C-36.23832684 -11.78861136 -12.33121127 -4.42965842 0 0 Z " fill="#FEFEFE" transform="translate(952.30859375,306.48828125)"/>
<path d="M0 0 C3.5 0.125 3.5 0.125 4.5 1.125 C4.59250411 3.33145597 4.61458756 5.54087792 4.61010742 7.74926758 C4.6106505 9.18634543 4.61123753 10.62342328 4.61186218 12.0605011 C4.61043402 12.827008 4.60900585 13.5935149 4.60753441 14.38324928 C4.60401613 18.44762412 4.62984109 22.51186041 4.65039062 26.57617188 C4.67463254 31.74612844 4.69054114 36.91568822 4.67504883 42.08569336 C4.66329992 46.26288494 4.68102598 50.43908745 4.71749306 54.61612511 C4.72604364 56.19989588 4.72412836 57.78376286 4.710989 59.36750221 C4.61607383 71.74795503 6.7044339 81.37951956 15.5625 90.625 C17.67366602 92.5936947 19.63438421 94.20900739 22.08878028 95.74332023 C24.82673015 98.44772737 25.0912288 99.91819132 25.14926106 103.69956011 C25.13526845 104.44241197 25.12127584 105.18526384 25.10685921 105.95062637 C25.11416486 107.14679029 25.11416486 107.14679029 25.12161809 108.36711913 C25.13189721 111.05634623 25.10630814 113.74405478 25.08108521 116.4331665 C25.08111729 118.37369938 25.08335513 120.31423326 25.0876168 122.25476146 C25.09299156 127.60063133 25.06711704 132.94597089 25.03635097 138.29173827 C25.0086562 144.05191063 25.00980925 149.81208304 25.00762939 155.5723114 C25.0000086 165.5585152 24.97438166 175.54454313 24.9369545 185.5306778 C24.8830979 199.97774321 24.85961138 214.42473504 24.84417842 228.87188682 C24.83683273 235.60119121 24.828105 242.33049352 24.81873894 249.05979538 C24.81780139 249.73349196 24.81686383 250.40718855 24.81589787 251.10130018 C24.79315735 267.1409668 24.75378422 283.18058714 24.71240234 299.22021484 C24.7087513 300.63861794 24.70510035 302.05702104 24.7014495 303.47542414 C24.69412722 306.31742013 24.68679868 309.15941611 24.67946773 312.00141208 C24.67674365 313.05790571 24.67674365 313.05790571 24.67396454 314.13574264 C24.67029203 315.55960922 24.66661586 316.98347579 24.66293603 318.40734235 C24.62069467 334.77431968 24.583405 351.14130662 24.54833984 367.50830078 C24.54683302 368.2092105 24.5453262 368.91012023 24.54377372 369.63226964 C24.50943079 385.63585025 24.47837416 401.63943166 24.45484734 417.64303207 C24.45385555 418.3157581 24.45286377 418.98848412 24.45184194 419.68159578 C24.44295935 425.7334308 24.4342608 431.78526604 24.42632698 437.83710238 C24.40561824 453.57714191 24.37416759 469.31706333 24.32301806 485.05703488 C24.29147893 494.93168514 24.27021438 504.80632166 24.25706185 514.68101344 C24.24904593 520.38119117 24.23594976 526.08124494 24.20967484 531.78137016 C24.18568216 536.99862441 24.17547463 542.21571647 24.17623971 547.43302414 C24.17403507 549.32133873 24.16670128 551.20965569 24.15374435 553.09792712 C24.13685187 555.66415958 24.13854987 558.2297436 24.14482307 560.79600906 C24.1355128 561.52949627 24.12620252 562.26298347 24.11661011 563.01869756 C24.16727519 569.43996173 25.58241693 574.90464065 29.875 579.875 C30.74125 580.6175 31.6075 581.36 32.5 582.125 C33.2425 582.846875 33.985 583.56875 34.75 584.3125 C37.44762682 586.09048131 39.07046544 586.60288416 42.171875 587.23828125 C43.38762207 587.49218628 43.38762207 587.49218628 44.62792969 587.7512207 C45.24571289 587.87456787 45.86349609 587.99791504 46.5 588.125 C46.50173625 587.11432594 46.5034725 586.10365189 46.50526136 585.06235135 C46.58181147 540.54041281 46.65958938 496.01847653 46.7436676 451.49655151 C46.74493928 450.82297308 46.74621096 450.14939465 46.74752118 449.45540475 C46.77516272 434.81827123 46.8030257 420.18113813 46.83111694 405.54400546 C46.84489066 398.36641388 46.85861542 391.1888222 46.87231445 384.01123047 C46.87367854 383.29695718 46.87504262 382.58268389 46.87644804 381.84676596 C46.92067377 358.67688499 46.96166398 335.50699967 47.00098413 312.3371099 C47.04139298 288.53572403 47.08505042 264.73434629 47.13282111 240.93297399 C47.1395601 237.57456731 47.14626178 234.21616056 47.15294075 230.85775375 C47.15425648 230.19674267 47.15557221 229.53573159 47.1569278 228.85468986 C47.17935365 217.5368677 47.19772593 206.21904279 47.21517897 194.9012122 C47.23095085 184.85508111 47.2503539 174.80896122 47.27266841 164.76284255 C47.28545279 158.95818154 47.29658261 153.1535292 47.30341911 147.34885788 C47.30970333 142.0429586 47.32050926 136.73708916 47.3350333 131.43120621 C47.33948909 129.50386495 47.34223276 127.57651887 47.34316199 125.64917268 C47.34465885 123.04481299 47.35218906 120.44054115 47.3613348 117.83619881 C47.36031213 117.07457571 47.35928946 116.31295262 47.35823581 115.52825004 C47.3858542 110.3532916 47.3858542 110.3532916 48.5 108.125 C54.65234375 108.02734375 54.65234375 108.02734375 56.5 108.125 C58.23919217 109.86419217 57.62455964 112.12012864 57.63293558 114.43833733 C57.63059442 115.20871897 57.62825325 115.97910061 57.62584114 116.77282715 C57.62729458 117.58747751 57.62874802 118.40212788 57.63024551 119.24146461 C57.63393252 122.0066977 57.63040667 124.77187658 57.62698364 127.53710938 C57.6281344 129.5254138 57.62972161 131.51371802 57.63171089 133.50202179 C57.6359105 138.99339612 57.63381069 144.48475321 57.63072467 149.97612762 C57.62847334 155.88756938 57.63194884 161.79900806 57.63470459 167.71044922 C57.63890602 178.63091391 57.63852535 189.55137263 57.63579312 200.47183764 C57.6332817 210.55878103 57.63261893 220.64572238 57.63381577 230.73266602 C57.63389215 231.4006713 57.63396854 232.06867658 57.63404724 232.75692445 C57.63435855 235.4682905 57.63467695 238.17965655 57.635007 240.89102259 C57.63806888 266.34743236 57.63528798 291.8038386 57.6299101 317.26024783 C57.62516418 339.89745878 57.62558879 362.5346641 57.63037109 385.171875 C57.63572088 410.58048336 57.63785177 435.9890886 57.63475883 461.39769745 C57.63443809 464.10424296 57.63412525 466.81078847 57.63381577 469.51733398 C57.63373669 470.18379859 57.63365761 470.8502632 57.63357614 471.53692371 C57.63243666 481.61975012 57.63377267 491.70257429 57.63629532 501.78540039 C57.63909249 513.24521987 57.63835683 524.7050325 57.63301457 536.16485119 C57.63037643 542.01800603 57.6293744 547.87114943 57.63266373 553.7243042 C57.63562438 559.07328045 57.63403777 564.42223455 57.62868617 569.77120876 C57.62756099 571.71532895 57.62815537 573.65945097 57.63056196 575.60356998 C57.63356383 578.22813162 57.63052369 580.85261542 57.62584114 583.47717285 C57.62935289 584.63274531 57.62935289 584.63274531 57.63293558 585.81166267 C57.61415034 591.01084966 57.61415034 591.01084966 56.5 592.125 C54.20418219 592.19688471 51.92482931 592.12146432 49.62890625 592.0625 C47.44497784 591.97718862 47.44497784 591.97718862 45.5 593.125 C43.95201719 593.29822492 42.3983477 593.42214723 40.84375 593.51953125 C39.43222656 593.62297852 39.43222656 593.62297852 37.9921875 593.72851562 C36.0292857 593.86561125 34.06571696 593.9935318 32.1015625 594.11132812 C24.52443606 594.69141978 16.81453264 595.98491645 11.125 601.375 C10.320625 602.73625 10.320625 602.73625 9.5 604.125 C8.81626658 605.2042188 8.13253317 606.2834376 7.42808056 607.39535999 C4.44008353 613.4718645 4.96387349 619.9290243 5.02571106 626.54924011 C5.02468185 628.01980136 5.02188898 629.49036225 5.01749247 630.96091729 C5.01050472 634.99086181 5.0283939 639.02036746 5.05039656 643.05024374 C5.06976377 647.40357025 5.06590998 651.75688392 5.06486511 656.11024475 C5.06617848 663.66095831 5.08204 671.21152883 5.10764503 678.76219749 C5.14473662 689.73681311 5.15849529 700.71136409 5.16654237 711.68603496 C5.18018571 729.56896861 5.21093803 747.4518293 5.25317383 765.3347168 C5.29383518 782.57266556 5.32936689 799.81060693 5.35571289 817.04858398 C5.35732919 818.10378222 5.35894548 819.15898045 5.36061076 820.24615439 C5.37819283 831.83520185 5.39406888 843.42425104 5.40852642 855.0133028 C5.40981425 856.04098348 5.41110208 857.06866416 5.41242894 858.12748668 C5.42283542 866.44519139 5.42283542 866.44519139 5.42769953 870.47759358 C5.44215636 882.40172174 5.46177861 894.32581524 5.49042488 906.24991803 C5.6571153 975.74977339 5.6571153 975.74977339 5.06518555 1007.8449707 C5.04547435 1008.96764544 5.02576316 1010.09032017 5.00545466 1011.24701536 C4.94950398 1014.29985406 4.88582672 1017.35239007 4.81791687 1020.40498352 C4.80106209 1021.29034731 4.7842073 1022.1757111 4.76684177 1023.0879041 C4.61674089 1029.00825911 4.61674089 1029.00825911 3.5 1030.125 C0 1030.25 0 1030.25 -3.5 1030.125 C-5.13791676 1028.48708324 -4.65802799 1026.60518046 -4.68945312 1024.34570312 C-4.70617065 1023.327948 -4.72288818 1022.31019287 -4.7401123 1021.26159668 C-4.75368774 1020.15433228 -4.76726318 1019.04706787 -4.78125 1017.90625 C-4.79965942 1016.77803833 -4.81806885 1015.64982666 -4.83703613 1014.48742676 C-4.91603321 1009.63673767 -4.98356271 1004.7859029 -5.05224609 999.93505859 C-5.1038382 996.40454949 -5.16114298 992.87416523 -5.21875 989.34375 C-5.23232544 988.2364856 -5.24590088 987.12922119 -5.2598877 985.98840332 C-5.27660522 984.97064819 -5.29332275 983.95289307 -5.31054688 982.90429688 C-5.32307495 982.00352417 -5.33560303 981.10275146 -5.34851074 980.17468262 C-5.27515678 978.13215514 -5.27515678 978.13215514 -6.5 977.125 C-6.59959621 975.28340977 -6.63080411 973.43803033 -6.6328125 971.59375 C-6.63474609 969.91345703 -6.63474609 969.91345703 -6.63671875 968.19921875 C-6.63285156 967.01972656 -6.62898437 965.84023438 -6.625 964.625 C-6.63080078 962.85576172 -6.63080078 962.85576172 -6.63671875 961.05078125 C-6.63542969 959.93058594 -6.63414062 958.81039062 -6.6328125 957.65625 C-6.63168457 956.62048828 -6.63055664 955.58472656 -6.62939453 954.51757812 C-6.5 952.125 -6.5 952.125 -5.5 951.125 C-5.39892437 949.3298877 -5.36891765 947.53075624 -5.36577892 945.73280334 C-5.36132108 944.55549149 -5.35686324 943.37817963 -5.35227031 942.16519165 C-5.35245467 940.8552121 -5.35263903 939.54523254 -5.35282898 938.19555664 C-5.34953223 936.80279945 -5.34580707 935.41004321 -5.3416875 934.01728821 C-5.3316372 930.17178812 -5.32794583 926.32630365 -5.32529819 922.48079228 C-5.3214039 918.34016963 -5.31182475 914.19955943 -5.30308533 910.0589447 C-5.28329257 900.04810858 -5.2732496 890.0372714 -5.26435754 880.02642059 C-5.25997785 875.31456943 -5.25461009 870.60271941 -5.24936867 865.89086914 C-5.23235098 850.23019646 -5.2178575 834.5695245 -5.21061993 818.90884399 C-5.20870995 814.84173583 -5.20678963 810.77462767 -5.20483398 806.70751953 C-5.20410837 805.19118136 -5.20410837 805.19118136 -5.2033681 803.6442101 C-5.19507051 787.27384049 -5.16974059 770.90354402 -5.13725331 754.53320634 C-5.1041849 737.73323539 -5.08617122 720.93330159 -5.08297569 704.13329792 C-5.08081002 694.69796023 -5.07205344 685.26272909 -5.04651451 675.8274231 C-5.02481021 667.79005992 -5.01675563 659.75282914 -5.02648129 651.71543998 C-5.03102725 647.61507501 -5.02912288 643.51498322 -5.00971985 639.41465569 C-4.99209557 635.65771024 -4.99307962 631.9012374 -5.00861714 628.14428699 C-5.01211705 626.1477552 -4.99596114 624.15121851 -4.97901267 622.15475559 C-5.03875255 613.81310987 -6.30291581 607.67469673 -11.125 600.8125 C-20.50367647 594.14870356 -31.39255266 594.09088078 -42.50390625 593.35864258 C-44.5 593.125 -44.5 593.125 -46.5 592.125 C-46.5 590.805 -46.5 589.485 -46.5 588.125 C-45.91992188 588.02703125 -45.33984375 587.9290625 -44.7421875 587.828125 C-38.29849002 586.59467796 -33.91732843 584.68046148 -29.3125 579.8125 C-25.32320641 573.89734054 -24.05488819 569.00184591 -24.11803246 561.91626358 C-24.11318215 561.11386145 -24.10833184 560.31145933 -24.10333455 559.48474199 C-24.09072551 556.79714016 -24.09941651 554.1100358 -24.10800171 551.42242432 C-24.10327834 549.47573652 -24.09723934 547.52905154 -24.08999789 545.58237147 C-24.07389326 540.23379426 -24.07640708 534.88536229 -24.08191919 529.53676963 C-24.08459828 523.76852769 -24.07001466 518.00032676 -24.05747986 512.23210144 C-24.03808485 502.23782964 -24.02951738 492.24359559 -24.02817917 482.24930573 C-24.02614118 467.79595319 -24.00668788 453.34266482 -23.98278125 438.88933381 C-23.94411173 415.4358328 -23.91853418 391.98233449 -23.90136719 368.52880859 C-23.89719322 362.84637448 -23.8930047 357.16394039 -23.88873291 351.48150635 C-23.88820316 350.77659475 -23.88767341 350.07168315 -23.88712761 349.34541059 C-23.87470181 332.96350492 -23.85701033 316.58160611 -23.83789062 300.19970703 C-23.83707421 299.49777657 -23.8362578 298.79584611 -23.83541664 298.07264503 C-23.81675704 282.05319748 -23.7966246 266.03375225 -23.77463722 250.01430893 C-23.77371577 249.34145314 -23.77279432 248.66859735 -23.77184495 247.97535199 C-23.76355489 241.923453 -23.75525716 235.87155403 -23.74671336 229.81965539 C-23.72455326 214.06821216 -23.70676019 198.31677819 -23.69676055 182.56532231 C-23.69039143 172.69119089 -23.68085205 162.81706619 -23.66879199 152.94294009 C-23.66199164 147.2393671 -23.65692855 141.53580496 -23.65620613 135.83222771 C-23.65554083 130.61784749 -23.65039448 125.40349222 -23.64160486 120.18911955 C-23.63924739 118.29628795 -23.63860852 116.40345332 -23.63980167 114.51062062 C-23.64119037 111.95050737 -23.63653112 109.39047614 -23.63028526 106.83037186 C-23.63310558 105.71172476 -23.63310558 105.71172476 -23.63598287 104.57047874 C-23.62274149 101.47803534 -23.48602989 99.08308968 -22.5 96.125 C-20.96154564 94.84010571 -19.36951068 93.61859285 -17.75 92.4375 C-11.16090669 87.30742021 -7.80446413 82.12052425 -5.5 74.125 C-5.30901417 71.67487129 -5.21680318 69.21602635 -5.19702148 66.75854492 C-5.18436249 65.69162415 -5.18436249 65.69162415 -5.17144775 64.60314941 C-5.14581895 62.27058186 -5.13356835 59.93814033 -5.12109375 57.60546875 C-5.10490986 55.97975168 -5.08772892 54.35404427 -5.06959534 52.72834778 C-5.02403624 48.46270187 -4.98915554 44.197043 -4.95739746 39.93127441 C-4.90538643 33.08592128 -4.84052908 26.24070884 -4.76918221 19.39553261 C-4.74629802 17.00183513 -4.73006607 14.60815586 -4.71446228 12.21440125 C-4.70106329 10.75775953 -4.68744916 9.30111977 -4.67358398 7.84448242 C-4.65931618 5.92970345 -4.65931618 5.92970345 -4.64476013 3.97624207 C-4.43245963 -0.20529684 -4.3006147 0.15359338 0 0 Z " fill="#FEFEFE" transform="translate(683.5,6.875)"/>
<path d="M0 0 C6.15234375 -0.09765625 6.15234375 -0.09765625 8 0 C9.73323298 1.73323298 9.12941523 3.97185764 9.14176419 6.28299728 C9.14023019 7.43177896 9.14023019 7.43177896 9.1386652 8.60376835 C9.14292853 9.81859561 9.14292853 9.81859561 9.14727798 11.05796483 C9.15568555 13.80696882 9.1568979 16.555931 9.15821838 19.3049469 C9.16277962 21.28159036 9.16777898 23.25823285 9.17318195 25.23487419 C9.18682246 30.69396657 9.19419843 36.15305269 9.20060861 41.6121577 C9.20858672 47.48882148 9.22229333 53.36547211 9.23532104 59.24212646 C9.25712069 69.43293918 9.27525236 79.6237532 9.29092598 89.8145771 C9.30737397 100.50640932 9.32582402 111.19823462 9.34705925 121.89005852 C9.34837686 122.55404989 9.34969446 123.21804125 9.351052 123.90215357 C9.35775379 127.27402619 9.36449243 130.64589872 9.37124526 134.01777124 C9.419049 157.92061367 9.4622223 181.82346246 9.50268555 205.72631836 C9.54201342 228.95223452 9.58343058 252.17814542 9.62768555 275.40405273 C9.62904808 276.11957399 9.63041061 276.83509525 9.63181442 277.57229896 C9.64549942 284.75764798 9.65922699 291.94299692 9.67298577 299.12834579 C9.70101472 313.76662927 9.72875945 328.40491329 9.7563324 343.04319763 C9.7576006 343.71628954 9.7588688 344.38938144 9.76017542 345.08287007 C9.84487705 390.05523817 9.9229317 435.02761825 10 480 C11.44457423 479.69994852 12.88795627 479.39415354 14.33081055 479.0859375 C15.13471725 478.91626465 15.93862396 478.7465918 16.76689148 478.57177734 C19.56962193 477.85415088 21.52605992 476.76467361 23.8125 475 C24.52019531 474.484375 25.22789063 473.96875 25.95703125 473.4375 C32.05272708 466.1646239 32.5697129 457.74670056 32.44496155 448.62744141 C32.44470158 447.41722132 32.4444416 446.20700123 32.44417375 444.9601078 C32.43968302 441.6267464 32.41738901 438.29438106 32.38755596 434.9612093 C32.35984499 431.356566 32.35573121 427.75188861 32.34912109 424.14715576 C32.3349613 417.90813515 32.30742991 411.66929224 32.27189827 405.43035889 C32.21678388 395.56376301 32.20215178 385.69729661 32.19371033 375.83056641 C32.1903091 372.45028661 32.18662206 369.07000717 32.18282986 365.68972778 C32.18188954 364.84512477 32.18094923 364.00052176 32.17998042 363.13032472 C32.16868351 353.53022639 32.14848096 343.93015314 32.12475586 334.33007812 C32.12259905 333.45313427 32.12044225 332.57619042 32.11822008 331.67267251 C32.08229799 317.45359203 32.01920274 303.23472181 31.94966669 289.0157721 C31.87922847 274.3997825 31.85107016 259.78409318 31.85867494 245.16793633 C31.86176624 236.16115523 31.83010972 227.15584074 31.75342827 218.14937925 C31.70375929 211.97726322 31.69412288 205.80589855 31.71570743 199.6336236 C31.72688387 196.07502756 31.72028492 192.51883333 31.66519737 188.96059418 C31.33454428 166.45349919 31.33454428 166.45349919 35.40707207 161.24078369 C38.35325623 158.58056641 38.35325623 158.58056641 41.28464413 156.72891235 C46.40637871 153.46781856 49.11685659 147.64943023 51 142 C51.11857936 139.62412424 51.1770529 137.24512016 51.20532227 134.86645508 C51.21522186 134.14425278 51.22512146 133.42205048 51.23532104 132.67796326 C51.26689759 130.29185255 51.29167822 127.90572194 51.31640625 125.51953125 C51.3369791 123.86471541 51.35797566 122.20990479 51.37937927 120.55509949 C51.43456575 116.20024847 51.48399013 111.84535029 51.53222656 107.49041748 C51.58246658 103.04630335 51.63813959 98.60225768 51.69335938 94.15820312 C51.80089908 85.43885997 51.90235335 76.71945953 52 68 C54.8125 67.375 54.8125 67.375 58 67 C58.99 67.66 59.98 68.32 61 69 C61.35835266 71.93112183 61.35835266 71.93112183 61.3371582 75.73779297 C61.3377121 76.43082016 61.33826599 77.12384735 61.33883667 77.83787537 C61.33857636 79.34659117 61.33167586 80.85531681 61.31899452 82.36397934 C61.30062903 84.76206391 61.3032832 87.1592739 61.3120575 89.55740356 C61.33386321 96.37694572 61.32323739 103.1961602 61.28491211 110.015625 C61.2629507 114.18739888 61.27051864 118.35831908 61.2953701 122.53006363 C61.29893529 124.11107989 61.29145543 125.69216544 61.27211952 127.27306747 C61.15261976 137.24943963 61.79423755 145.71457944 68 154 C70.04554852 155.36568319 72.09401828 156.72699678 74.14472961 158.08491516 C78.54921759 161.69643891 80.337229 165.03906397 81.09697247 170.6930275 C81.60237121 177.50884605 81.53490313 184.32637322 81.41869426 191.15485632 C81.3706842 194.75888141 81.39266222 198.36258644 81.40602112 201.96681213 C81.41985738 208.20356725 81.39048022 214.43889475 81.33169556 220.67537117 C81.24702514 229.70277756 81.23292116 238.72924823 81.23636544 247.75700133 C81.24043298 262.42007844 81.19401759 277.08252411 81.11279297 291.74536133 C81.03422201 305.9585557 80.96939616 320.17164755 80.93017578 334.38500977 C80.92774848 335.26061647 80.92532118 336.13622317 80.92282033 337.0383634 C80.89684872 346.60402764 80.87649923 356.16969142 80.86282349 365.73538113 C80.86100289 366.99753702 80.86100289 366.99753702 80.85914552 368.28519101 C80.85436875 371.64954417 80.84965343 375.01389718 80.84565616 378.37825137 C80.8338328 388.21235808 80.8046313 398.04604309 80.74367148 407.87997424 C80.7058514 414.0485944 80.68104347 420.21717122 80.66632265 426.3858896 C80.65717215 429.94171452 80.64120039 433.49718202 80.60730171 437.05286407 C80.57052321 440.9133378 80.56484948 444.77351547 80.56176758 448.63417053 C80.54582172 449.7492595 80.52987587 450.86434846 80.51344681 452.013228 C80.54287583 459.60616006 81.48289046 467.07782609 86.7407198 472.94119793 C91.65220298 477.45329097 96.43641285 479.08415063 103 480 C103.495 481.485 103.495 481.485 104 483 C101.56123117 485.43876883 100.77134655 485.29017145 97.4140625 485.45703125 C96.48843506 485.5144751 95.56280762 485.57191895 94.60913086 485.63110352 C93.62436768 485.69096436 92.63960449 485.7508252 91.625 485.8125 C79.13038593 486.67363335 79.13038593 486.67363335 68 492 C63.35005875 497.77689207 61.87604632 503.54673597 61.86692142 510.86038303 C61.8646784 511.56560883 61.86243537 512.27083462 61.86012438 512.99743089 C61.85376962 515.37839423 61.85454937 517.75930306 61.85523987 520.14027405 C61.85210739 521.85735562 61.84853288 523.57443643 61.84455246 525.29151624 C61.83483405 530.02393284 61.83130067 534.75633737 61.82870948 539.4887625 C61.82482178 544.58696105 61.81518433 549.68514888 61.80615234 554.78334045 C61.7912008 563.62141261 61.77966225 572.4594839 61.77020454 581.29756355 C61.75634904 594.07823141 61.73516448 606.85887938 61.71177601 619.63953298 C61.67384194 640.37662733 61.63887845 661.11372527 61.60717773 681.85083008 C61.60527724 683.0927047 61.60337675 684.33457932 61.60141867 685.6140865 C61.57457253 703.24784341 61.55070271 720.88160312 61.52803367 738.51536583 C61.52643637 739.75754364 61.52483906 740.99972145 61.52319336 742.27954102 C61.52159989 743.5202122 61.52000643 744.76088338 61.51836468 746.03915066 C61.49163223 766.69815669 61.45724885 787.35714148 61.41653961 808.01612467 C61.3917159 820.7707276 61.37341651 833.52530765 61.363384 846.27993094 C61.3560137 855.01269429 61.3415191 863.74542694 61.32131977 872.47816999 C61.30988717 877.5233893 61.30179686 882.56855899 61.30232811 887.61379242 C61.30275337 892.22569491 61.29412803 896.83748547 61.27807831 901.44935923 C61.27389691 903.12425534 61.27314786 904.79916398 61.27604241 906.47406281 C61.27947672 908.73799707 61.27081052 911.00156039 61.25891972 913.26545811 C61.25718347 914.52678171 61.25544722 915.78810531 61.25365835 917.08765084 C61 920 61 920 59 922 C55.9375 922.1875 55.9375 922.1875 53 922 C52 921 52 921 51.87514281 918.21349198 C51.87519513 916.9525454 51.87524745 915.69159883 51.87530136 914.39244175 C51.87328501 913.33912719 51.87328501 913.33912719 51.87122792 912.26453355 C51.86788542 909.88170235 51.87172347 907.49893407 51.87542725 905.11610413 C51.87444204 903.40232594 51.87300576 901.68854796 51.87115407 899.97477049 C51.86808347 896.23311795 51.86821125 892.49148318 51.87071037 888.74983025 C51.87475554 882.66292727 51.87200833 876.57603831 51.86836243 870.48913574 C51.8642656 862.79822892 51.86203265 855.10732522 51.86194643 847.41641729 C51.86174401 832.29879179 51.84930175 817.18119849 51.83233643 802.06358337 C51.82973054 799.68571014 51.82713173 797.3078369 51.8245399 794.92996365 C51.82060127 791.32564395 51.81665478 787.72132425 51.81267868 784.11700459 C51.7977206 770.51542295 51.78410273 756.91384032 51.77197266 743.31225586 C51.7708591 742.06835811 51.76974553 740.82446035 51.76859823 739.54286873 C51.75103281 719.39675369 51.74815334 699.25065873 51.74982306 679.10453732 C51.75110206 658.431976 51.73336567 637.75948949 51.69880509 617.08695692 C51.67814595 604.33091887 51.6728247 591.57505991 51.6871334 578.81901234 C51.69559211 570.0735179 51.68586178 561.32816268 51.6618239 552.58269764 C51.64851457 547.53640079 51.64333143 542.49043784 51.65994453 537.4441433 C51.67499383 532.82169233 51.66695678 528.19987028 51.640775 523.57747429 C51.63536295 521.90776004 51.63834163 520.23799238 51.65069196 518.56831504 C51.72158895 508.22156362 51.17955693 499.45953298 43.6875 491.5625 C36.51381182 487.39175106 29.83497679 486.42792258 21.6875 485.875 C19.73284134 485.72964378 17.77839905 485.58133934 15.82421875 485.4296875 C14.54164185 485.34050049 14.54164185 485.34050049 13.2331543 485.24951172 C11 485 11 485 8 484 C6.62566569 483.95721917 5.24940127 483.95942727 3.875 484 C2.59625 484 1.3175 484 0 484 C-1.73689807 482.26310193 -1.1245498 480.01461643 -1.13293558 477.6993455 C-1.12942383 476.54660833 -1.12942383 476.54660833 -1.12584114 475.37058353 C-1.12729458 474.55792114 -1.12874802 473.74525875 -1.13024551 472.90797022 C-1.13393252 470.14948981 -1.13040668 467.39106374 -1.12698364 464.63258362 C-1.1281344 462.64911668 -1.12972161 460.66564996 -1.13171089 458.68218368 C-1.13591051 453.20414153 -1.13381068 447.72611665 -1.13072467 442.24807441 C-1.12847333 436.35092859 -1.13194885 430.45378585 -1.13470459 424.55664062 C-1.13890608 413.66232264 -1.1385253 402.76801063 -1.13579312 391.87369232 C-1.1332816 381.81027912 -1.13261897 371.74686796 -1.13381577 361.68345451 C-1.13389215 361.0169807 -1.13396854 360.35050689 -1.13404724 359.6638369 C-1.13435855 356.95866904 -1.13467695 354.25350118 -1.135007 351.54833332 C-1.13806893 326.14950617 -1.13528796 300.75068257 -1.1299101 275.35185597 C-1.12516472 252.76834154 -1.12558833 230.18483274 -1.13037109 207.60131836 C-1.13572168 182.25166406 -1.13785127 156.90201288 -1.13475883 131.55235809 C-1.13443809 128.85169248 -1.13412526 126.15102687 -1.13381577 123.45036125 C-1.13373669 122.78534722 -1.13365761 122.12033318 -1.13357614 121.43516721 C-1.13243694 111.37682186 -1.13377216 101.31847878 -1.13629532 91.26013374 C-1.13909339 79.82669327 -1.13835492 68.39325966 -1.13301457 56.95981998 C-1.13037758 51.12071809 -1.12937246 45.28162768 -1.13266373 39.44252586 C-1.13562675 34.10521661 -1.13403375 28.76792955 -1.12868617 23.43062233 C-1.12756201 21.4918679 -1.12815315 19.55311163 -1.13056196 17.61435837 C-1.13356909 14.99463083 -1.13051813 12.37498097 -1.12584114 9.75525761 C-1.12818231 8.98910732 -1.13052347 8.22295704 -1.13293558 7.43359008 C-1.11415036 2.22830071 -1.11415036 2.22830071 0 0 Z " fill="#FEFEFE" transform="translate(1128,115)"/>
<path d="M0 0 C3.06631111 2.32749914 6.28187886 4.34205406 9.54296875 6.3828125 C21.72493756 14.09343035 30.31769252 23.10139207 36.85546875 36.0078125 C37.18933594 36.66450928 37.52320313 37.32120605 37.8671875 37.99780273 C40.97812022 44.40610011 42.84110757 50.6700362 42.48046875 57.8828125 C40.11275337 54.88793441 38.29966823 51.79718754 36.48046875 48.4453125 C30.17267396 37.58262589 22.44480472 28.23894929 11.48046875 21.8828125 C10.41892578 21.24859375 10.41892578 21.24859375 9.3359375 20.6015625 C-6.85054805 11.75710805 -25.28318637 6.0611611 -43.51953125 10.8828125 C-54.54137684 14.49341709 -61.57350308 19.05976701 -67.23046875 29.26953125 C-72.47195908 39.89546164 -73.48357662 52.74744108 -70.39453125 64.2578125 C-67.94468007 71.059066 -64.65306061 77.7645615 -59.51953125 82.8828125 C-59.51953125 83.5428125 -59.51953125 84.2028125 -59.51953125 84.8828125 C-58.96265625 85.1303125 -58.40578125 85.3778125 -57.83203125 85.6328125 C-55.51953125 86.8828125 -55.51953125 86.8828125 -53.26953125 88.8203125 C-49.8205632 91.40703854 -46.59430915 92.50153186 -42.51953125 93.8828125 C-41.89642734 101.51866771 -45.96828836 106.10068256 -50.51953125 111.8828125 C-57.37164526 119.34781685 -66.17280804 125.29002134 -76.47265625 126.12109375 C-89.16191144 126.40675234 -89.16191144 126.40675234 -94.51953125 121.8828125 C-104.29168971 111.10838138 -105.35353859 96.69062028 -106.51953125 82.8828125 C-107.17953125 82.8828125 -107.83953125 82.8828125 -108.51953125 82.8828125 C-109.3387657 94.89825117 -106.39657096 105.60097623 -102.51953125 116.8828125 C-110.35896266 119.4959563 -119.90223474 118.79419903 -127.33984375 115.24609375 C-136.3005576 109.64163294 -139.03365596 100.6383063 -141.51953125 90.8828125 C-142.03366476 87.85513737 -142.3114953 84.95134282 -142.51953125 81.8828125 C-142.84953125 81.2228125 -143.17953125 80.5628125 -143.51953125 79.8828125 C-144.17953125 79.8828125 -144.83953125 79.8828125 -145.51953125 79.8828125 C-145.33690531 89.87743227 -143.20085129 97.65463861 -139.51953125 106.8828125 C-139.18953125 107.8728125 -138.85953125 108.8628125 -138.51953125 109.8828125 C-144.39041202 114.91499602 -148.96358865 116.3537042 -156.60546875 116.19921875 C-165.21515896 115.26438644 -171.83899491 111.17677156 -177.39453125 104.6953125 C-179.06010338 100.53138218 -179.12354819 96.31488487 -178.51953125 91.8828125 C-177.52953125 90.8928125 -177.52953125 90.8928125 -176.51953125 89.8828125 C-174.20703125 90.1953125 -174.20703125 90.1953125 -171.51953125 90.8828125 C-170.12734375 91.16125 -170.12734375 91.16125 -168.70703125 91.4453125 C-167.98515625 91.5896875 -167.26328125 91.7340625 -166.51953125 91.8828125 C-166.92101165 86.76393743 -167.94637367 82.27898049 -169.51953125 77.3828125 C-171.07132746 72.47441361 -172.30046292 68.0217904 -172.51953125 62.8828125 C-172.57109375 61.85800781 -172.62265625 60.83320313 -172.67578125 59.77734375 C-172.99276291 47.87732405 -171.1959715 36.44408058 -165.51953125 25.8828125 C-165.09929687 25.08488281 -164.6790625 24.28695312 -164.24609375 23.46484375 C-160.50068851 16.79140071 -155.79502959 11.39173997 -150.51953125 5.8828125 C-149.96652344 5.26664062 -149.41351562 4.65046875 -148.84375 4.015625 C-131.14988905 -15.03930218 -103.15767224 -24.074912 -77.76611328 -25.06054688 C-49.4956209 -25.7733 -22.1459869 -17.99109319 0 0 Z " fill="#FEFEFE" transform="translate(1499.51953125,306.1171875)"/>
<path d="M0 0 C0.89332031 0.63421875 1.78664063 1.2684375 2.70703125 1.921875 C5.49569776 3.9166293 8.24893807 5.95375559 11 8 C12.01835938 8.73734375 13.03671875 9.4746875 14.0859375 10.234375 C20.37193097 14.85310543 26.13423192 19.83032639 31.6875 25.3125 C32.58819214 26.19252686 32.58819214 26.19252686 33.50708008 27.09033203 C36.5738524 30.19028974 38.75187907 32.70807448 40 37 C40.66 37 41.32 37 42 37 C45.22265625 42.17578125 45.22265625 42.17578125 46 44 C45.67 44.99 45.34 45.98 45 47 C43.64508116 45.50067938 42.29111322 44.00049946 40.9375 42.5 C40.10734375 41.58089844 39.2771875 40.66179687 38.421875 39.71484375 C36.46947725 37.52626886 34.57329746 35.30771925 32.6875 33.0625 C7.97759717 5.03922383 -26.43332375 -8.63068534 -63 -12 C-90.04066617 -13.60731232 -116.2945997 -11.10868646 -138.01171875 6.64453125 C-143.39621117 11.63190275 -148.75573146 18.61313994 -150 26 C-149.7834375 27.051875 -149.7834375 27.051875 -149.5625 28.125 C-148.1020434 35.58955595 -148.60939001 42.19309359 -152 49 C-152.4021875 49.82757813 -152.804375 50.65515625 -153.21875 51.5078125 C-156.69129115 57.97059742 -160.51306394 61.62278071 -167 65 C-167.62648438 65.33902344 -168.25296875 65.67804688 -168.8984375 66.02734375 C-176.44457426 69.48200973 -185.62478361 69.20606967 -193.3125 66.375 C-203.01206953 61.86320672 -209.18895345 55.64429186 -213.375 45.75 C-215.21492432 34.71045409 -214.6535137 24.8449773 -208.125 15.5625 C-186.94997847 -9.97208479 -145.48724156 -25.21339477 -113.5390625 -28.6015625 C-73.53854064 -31.90193559 -32.83610043 -24.14852229 0 0 Z " fill="#FEFEFE" transform="translate(975,306)"/>
<path d="M0 0 C13.59278277 4.84423641 23.72771701 18.49179509 30 31 C37.95009059 49.61484625 37.95009059 49.61484625 35.31640625 58.23828125 C30.69853353 69.33267256 22.98014658 77.70641992 11.8125 82.375 C1.21121215 86.1739301 -10.5691 86.58894508 -21 82 C-33.6501914 75.29344691 -43.69646692 65.61291904 -48.265625 51.88671875 C-50.69045683 42.35506598 -48.70961366 34.51448575 -44 26 C-42.12075369 23.23792094 -40.7921121 22.01032071 -38 20 C-34.125 19.625 -34.125 19.625 -31 20 C-30.855625 20.99 -30.71125 21.98 -30.5625 23 C-30.46710938 23.64066406 -30.37171875 24.28132813 -30.2734375 24.94140625 C-30.00901368 26.93213988 -29.8463828 28.93557678 -29.6875 30.9375 C-29.01551369 36.33439002 -26.92353404 41.1365764 -23 44.9375 C-18.2861263 47.4417454 -13.22173992 47.48594872 -8 47 C-0.94835527 44.76697917 3.79408451 40.64457057 7.26953125 34.0625 C10.6069379 24.63923415 6.70040262 14.0759059 2.84375 5.3984375 C1.94190911 3.57543056 0.97882308 1.78285632 0 0 Z " fill="#FEFEFE" transform="translate(1505,330)"/>
<path d="M0 0 C23.22018507 20.28757678 39.67121933 50.48329357 42.078125 81.5390625 C43.34702363 106.10350731 39.24335218 129.42009992 22.890625 148.7890625 C17.08402956 154.95421272 9.71749737 161.3881972 1.078125 162.5390625 C1.203125 160.7890625 1.203125 160.7890625 2.078125 158.5390625 C3.44904297 157.66701172 3.44904297 157.66701172 4.84765625 156.77734375 C17.26155836 148.17617578 23.4674388 129.73702068 26.078125 115.5390625 C26.71517011 110.09534178 26.66157854 104.63608367 26.578125 99.1640625 C26.57225372 98.4419458 26.56638245 97.7198291 26.56033325 96.97583008 C26.45621187 86.04081849 25.79775007 75.91890119 22.078125 65.5390625 C21.83143066 64.85038086 21.58473633 64.16169922 21.33056641 63.45214844 C10.49626272 33.88228091 -8.56948557 7.24013598 -37.734375 -6.3984375 C-48.57466454 -11.27296729 -58.14459355 -13.53395488 -69.94726562 -14.06640625 C-75.71738338 -14.35869169 -75.71738338 -14.35869169 -77.921875 -15.4609375 C-77.265625 -17.3828125 -77.265625 -17.3828125 -75.921875 -19.4609375 C-49.6064225 -28.51755427 -20.09053633 -16.92117365 0 0 Z " fill="#FEFEFE" transform="translate(396.921875,299.4609375)"/>
<path d="M0 0 C1.93669927 3.87339855 1.63213123 7.79119463 1 12 C-3.1558093 23.97038759 -10.83044251 34.05199573 -22.1875 40.0625 C-33.20233759 44.8576028 -42.76411973 45.2257968 -54 41 C-57.8915771 39.35688967 -59.23204913 37.71898383 -61.1875 34.125 C-63.79401654 29.58030449 -67.07461988 28.03097258 -71.79296875 26.0078125 C-74 25 -74 25 -76 23 C-76.125 20.375 -76.125 20.375 -76 18 C-75.030625 17.731875 -74.06125 17.46375 -73.0625 17.1875 C-72.051875 16.795625 -71.04125 16.40375 -70 16 C-69.67 15.01 -69.34 14.02 -69 13 C-64.27630183 9.31230874 -59.20613895 8.43398384 -53.34375 8.66015625 C-50.15814354 9.12206919 -47.70566625 10.29115816 -45 12 C-44.19949219 11.18595703 -44.19949219 11.18595703 -43.3828125 10.35546875 C-35.87859864 3.14986548 -29.8049428 0.8288772 -19.4375 0.9375 C-18.344375 0.9684375 -17.25125 0.999375 -16.125 1.03125 C-12.49997195 0.99499972 -9.36566144 0.3569025 -5.90234375 -0.66015625 C-3.61321539 -1.06909705 -2.16817806 -0.81598099 0 0 Z " fill="#FEFEFE" transform="translate(308,175)"/>
<path d="M0 0 C1.61648438 0.01353516 1.61648438 0.01353516 3.265625 0.02734375 C4.08546875 0.03894531 4.9053125 0.05054688 5.75 0.0625 C3.80223315 1.54280281 1.85499229 2.99236345 -0.1796875 4.3515625 C-10.60964079 11.51430151 -14.09650966 21.42706178 -16.78271484 33.44604492 C-18.91798411 45.40199098 -18.44272459 59.04504157 -13.25 70.0625 C-12.899375 70.90425781 -12.54875 71.74601563 -12.1875 72.61328125 C-6.20980494 85.9593157 3.09742169 94.60700604 16.5625 99.8125 C17.64144531 100.19921875 18.72039063 100.5859375 19.83203125 100.984375 C22.24945984 101.87756147 24.4795788 102.85307466 26.75 104.0625 C14.58186564 107.76065848 1.20429902 104.50839951 -9.8125 99 C-24.78115834 90.44904188 -33.66223485 78.17927717 -39.25 62.0625 C-42.86369342 48.75858411 -40.82293858 33.23263678 -34.77734375 21.109375 C-28.73729563 10.65709316 -19.79602905 4.09805735 -8.3828125 0.46875 C-5.56185098 -0.068576 -2.86915896 -0.03118651 0 0 Z " fill="#FEFEFE" transform="translate(879.25,474.9375)"/>
<path d="M0 0 C0.82242188 0.01353516 1.64484375 0.02707031 2.4921875 0.04101562 C4.49508221 0.07594984 6.49763356 0.12973943 8.5 0.1875 C8.5 0.8475 8.5 1.5075 8.5 2.1875 C7.73816406 2.46722656 6.97632813 2.74695313 6.19140625 3.03515625 C-1.01030248 5.83132531 -6.80488626 8.95326252 -12.5 14.1875 C-13.13808594 14.77144531 -13.77617187 15.35539063 -14.43359375 15.95703125 C-22.24433956 23.93575009 -24.97716472 33.69714645 -25.125 44.625 C-24.91031519 60.5574546 -17.79198011 73.33612896 -7.5 85.1875 C-7.5 85.5175 -7.5 85.8475 -7.5 86.1875 C-17.41546003 85.82026074 -24.9689137 80.61457905 -31.6796875 73.5234375 C-40.10960667 62.70564424 -42.81699339 50.63469567 -41.5 37.1875 C-38.48368294 23.35452965 -32.03140141 13.10741185 -20.40625 4.84375 C-13.5415209 0.93159256 -7.87455765 -0.25008774 0 0 Z " fill="#FFFFFF" transform="translate(423.5,151.8125)"/>
<path d="M0 0 C7.4753598 2.88991563 15.2066259 6.37386522 20 13 C20.8250263 16.23135302 20.64058553 17.84231531 19.02734375 20.7578125 C14.89055581 26.32981258 9.33430513 28.57972819 3 31 C1.88625 31.433125 0.7725 31.86625 -0.375 32.3125 C-3.17173868 33.04497918 -5.14374596 33.54037239 -8 33 C-10.56516653 29.44123731 -11.66429964 26.06175161 -12.625 21.8125 C-13.49509713 17.79176644 -13.49509713 17.79176644 -15 14 C-15.5811138 6.91041162 -15.5811138 6.91041162 -13.125 3.0625 C-9.21234393 -0.73507795 -5.22468977 -0.8767705 0 0 Z " fill="#FEFEFE" transform="translate(1160,106)"/>
<path d="M0 0 C2.82424288 2.19022918 4.41508603 3.83017207 6 7 C6.43491529 11.56661058 5.48893184 14.70742664 3.79296875 18.83984375 C2.68118969 21.86848326 2.10680308 24.94947651 1.52734375 28.1171875 C1 30 1 30 -1 32 C-9.95247052 32.69551066 -19.45901838 28.70236487 -26.75 23.75 C-29.45138509 20.44830711 -30.07092867 18.49300131 -29.76953125 14.2734375 C-28.18072204 9.57959505 -24.07733372 7.44155347 -20 5 C-19.18402344 4.49082031 -18.36804687 3.98164062 -17.52734375 3.45703125 C-11.87272018 0.25782267 -6.48939174 -1.47276976 0 0 Z " fill="#FEFEFE" transform="translate(1213,106)"/>
<path d="M0 0 C1.02738281 0.54269531 2.05476563 1.08539063 3.11328125 1.64453125 C10.91539826 5.69650111 18.31189597 9.23292799 27 11 C26.8453125 11.76570312 26.690625 12.53140625 26.53125 13.3203125 C25.71261519 17.44960279 25.05039055 21.56808102 24.5625 25.75 C24 29 24 29 22 31 C19.5 31.3125 19.5 31.3125 17 31 C15 28 15 28 15 25 C14.13375 25.226875 13.2675 25.45375 12.375 25.6875 C7.70525361 26.11988393 4.9551671 24.5542844 1.3425293 21.68237305 C-0.43226795 19.45830907 -0.34685773 18.15222135 -0.29296875 15.33203125 C-0.28330078 14.43935547 -0.27363281 13.54667969 -0.26367188 12.62695312 C-0.23853516 11.69818359 -0.21339844 10.76941406 -0.1875 9.8125 C-0.17396484 8.87212891 -0.16042969 7.93175781 -0.14648438 6.96289062 C-0.11113096 4.64134962 -0.06178674 2.32096347 0 0 Z " fill="#FEFEFE" transform="translate(1184,132)"/>
<path d="M0 0 C0.24525941 19.64800407 0.24525941 19.64800407 -3.1875 23.375 C-6.25935577 25.14985 -8.4720795 25.76991823 -12 26 C-12.99 25.67 -13.98 25.34 -15 25 C-15.309375 25.804375 -15.61875 26.60875 -15.9375 27.4375 C-17 30 -17 30 -18 31 C-20.4375 31.25 -20.4375 31.25 -23 31 C-25.55410664 27.16884003 -25.05282227 24.92734552 -24.77734375 20.47265625 C-25.04798118 17.46715637 -26.10889108 16.28611861 -28 14 C-28 13.34 -28 12.68 -28 12 C-27.02160156 11.69707031 -26.04320312 11.39414063 -25.03515625 11.08203125 C-18.24156308 8.92933959 -6.06101751 0 0 0 Z " fill="#FEFEFE" transform="translate(1180,132)"/>
<path d="M0 0 C0.66 0 1.32 0 2 0 C2 0.66 2 1.32 2 2 C1.34 2 0.68 2 0 2 C0 1.34 0 0.68 0 0 Z " fill="#FFFFFF" transform="translate(935,480)"/>
<path d="" fill="#FFFFFF" transform="translate(0,0)"/>
<path d="" fill="#FFFFFF" transform="translate(0,0)"/>
<path d="" fill="#FFFFFF" transform="translate(0,0)"/>
<path d="" fill="#FFFFFF" transform="translate(0,0)"/>
<path d="" fill="#FFFFFF" transform="translate(0,0)"/>
<path d="" fill="#FFFFFF" transform="translate(0,0)"/>
<path d="" fill="#FFFFFF" transform="translate(0,0)"/>
</svg>
